<?xml version="1.0" encoding="utf-8"?>
<!-- Generator: Adobe Illustrator 24.3.0, SVG Export Plug-In . SVG Version: 6.00 Build 0)  -->
<svg version="1.1" id="Ebene_1" xmlns="http://www.w3.org/2000/svg" xmlns:xlink="http://www.w3.org/1999/xlink" x="0px" y="0px"
	 viewBox="0 0 1440 1080" style="enable-background:new 0 0 1440 1080;" xml:space="preserve">
<style type="text/css">
	.st0{fill:none;}
	.st1{fill:#001C6E;}
</style>
<path class="st0" d="M1440,136.6c-16.6,35.4-32.9,66.9-46.3,91.5c-3.1,5.7-11.6,2-9.7-4.1c22.7-70.5,38-148.9,55.4-224h-79.6
	c-7.9,26.7-13.4,53.6-14.4,78.4c-7.2,184.7-51.4,348.3-134.5,437.1c-2,2.2-1.8,5.5,0.3,7.5c1.6,1.4,3.8,1.8,5.8,0.9
	c44.4-20.3,137.8-76.2,190.3-202.4c12-28.7,22.7-54,32.7-76.5V0l0,0V136.6z"/>
<path class="st0" d="M131.5,910.6c-0.4-2.9-3.1-4.9-6-4.6c-1.9,0.3-3.5,1.5-4.2,3.4C99.6,968.5,61.8,1026.8,13.7,1080H111
	C138.1,1007.2,135.4,942.4,131.5,910.6z"/>
<path class="st0" d="M2,574.2l-2,2v47c4.8-18.6,8.4-33.6,10.8-44c0.6-2.9-1.2-5.7-4-6.3C5,572.5,3.3,573,2,574.2z"/>
<path class="st0" d="M1067.7,886.7c0,0,40.6-20,108.7-59.3c86-49.7,147-137.7,158.5-286.8c0.2-2.9-2-5.4-5-5.6
	c-1.2-0.1-2.4,0.3-3.3,0.9c-21.5,14.8-80.9,54.4-171.7,88.7c-113.8,42.9-258.6,163.1-258.6,163.1c-45.7,38.2-99,102.4-126.1,136.5
	c-3.7,4.7-11.1,0.5-9.1-5.1c29.9-82,92.3-156.1,92.3-156.1s77.3-94.7,158.8-157s198.7-150.2,249.8-346.1
	c26.4-100.8,21.7-176.4,53.9-259.9h-102.3c-1.3,18.1-0.6,35.8,2.7,52.5c19.3,96.4-19.3,184.6-53.1,245.4c-3.1,5.7-11.7,1.8-9.6-4.3
	c20.6-58,16-117.3,10.3-231.9c-1-20.6,0.2-41.3,3.4-61.7H1008c-14.8,21.3-27.6,42.4-37.5,59.7c-3.1,5.4-11.4,1.9-9.6-4.1
	c4.8-16.1,10.8-35.3,17.9-55.6h-167c-27.4,51.4-65.2,99.6-111.7,143.3c-54.2,51-114.5,132.8-142.3,172c-1.8,2.3-5.1,2.8-7.4,1.1
	c-1.7-1.3-2.5-3.4-2-5.5c35.2-130.3,140-226,191.8-310.9H609.8c-41.5,36-86.5,67.7-134.5,94.4c-83,46.2-145.1,148.7-171.2,197.4
	c-2.8,5.3-11,2.4-9.8-3.5c8.3-43.8,31.4-97,81.4-159.2C418.4,75.9,468.9,39.7,518.1,0H325.4c-18.9,113.3-70.6,262.8-209.7,336.4
	C75.6,357.2,37,380.6,0,406.5v89.4c51.6-48.4,95.6-79.6,119-94.9c2.4-1.6,5.7-1,7.3,1.5c1.1,1.7,1.2,3.9,0.2,5.6
	C55.5,531.9,60.4,565.8,28.8,700c-7.7,31.9-17.3,63.3-28.8,94v187.1c77.5-132,100.1-226.7,111.1-346.5c11.9-128.3,89-248.8,89-248.8
	c11.7-17,24.5-33.2,38.3-48.4c1.8-2.2,5.1-2.6,7.3-0.8c1.9,1.5,2.5,4.2,1.4,6.4c-6.5,15.3-15,35.7-23,56.6
	c-51.1,133.9-61.4,298.2-28.5,457c16,77.2,9.7,152.6-15.6,223.4h70.1c-18.3-82.9-6.5-163.5,1.4-201.6c1.2-5.5,9-5.6,10.3-0.2
	c5.1,20.8,13.8,47.5,26.5,70.5c5.5,9.8,15.2,8.6,22.9-0.9c21.7-26.9,40.2-46.3,57.5-62c4.4-4.1,11.1,1.3,8.1,6.5
	c-39.7,70.1-69.8,140.6-88.2,187.7h55c16.8-38.3,36.6-73.4,57.9-92.4c34.1-30.2,51.6-63.4,61.3-142c7.1-56.9,14.1-102.9,32.2-147.8
	c12.9-32,25.9-62.4,65.4-104c0,0,23.8-23.3,51-33.5c1.3-0.6,2.8,0,3.4,1.3c0.4,0.9,0.2,2-0.4,2.8c-6.4,8.1-20.3,20.8-33.2,41.4
	c-32.5,49.4-38.6,81.6-48.7,119c-11.3,51.8-15.4,65-14,116.3c0.5,16.6,23.3,25.8,35.3,9.7c28.9-38.8,74.3-127.6,90.6-208.5
	c0.6-4.1,1-8.2,1-12.3c0.1-1.5,1.4-2.6,2.9-2.5c1,0.1,1.9,0.7,2.3,1.7c1.9,6.3,3.4,12.7,4.4,19.2c5.8,35.8,7.2,102.9-33.1,191.7
	c-61.7,135.8-93.3,151-180.1,204.1c-14.8,9.1-29.3,21.5-43.2,35.8h125.6c28.2-77.1,78.8-133.8,103.3-158.1c2.2-2.1,5.7,0.6,4.1,3.2
	c-16.4,28.2-49.1,89.5-66.5,154.9h122.1c16.2-26.8,37.2-55,64.9-85.5c4.1-4.6,11.5,0.5,8.5,6c-11,20.7-25,48.6-37.8,79.5h72.5
	c6.9-26,14.4-51.2,22.9-75.1c43-120,130.8-186.8,130.8-186.8s67.7-54.3,154.9-84.4c82.5-28.6,107.3-34.7,149.1-71.9
	c4.3-3.8,10.8,1,8.3,6.2c-14.4,30.6-47.8,84.6-110.5,107.2c-66.7,24-87.7,35.2-144.9,75.8c0,0-118.2,82.7-152,226.9
	c-0.2,0.7-0.4,1.4-0.5,2.1h71.5C983.4,927.7,1067.7,886.7,1067.7,886.7z M1108.1,468.6c-15.5,22.3-45.5,59.9-83.5,81.3
	c-1.2,0.7-2.8,0.3-3.6-0.9c-0.5-0.8-0.5-1.8,0-2.6c9.6-18.7,35.1-69.7,55.9-127.4c0.3-1.4,1.7-2.3,3.1-1.9c1.3,0.3,2.2,1.6,2,2.9
	c-0.8,16.3-2.7,41.5-8.1,62.5c-0.4,1.4,0.4,2.8,1.8,3.2c0.7,0.2,1.5,0.1,2.1-0.3c9.3-6.1,18.1-12.8,26.4-20.2c1-1,2.7-0.9,3.7,0.1
	C1108.7,466.2,1108.8,467.6,1108.1,468.6z M1079.4,24.6C1060,212.5,990.1,301.4,905,347.7c-59.3,32.3-105.6,81.5-131.6,113.1
	c-3.8,4.7-11.3,0.1-8.9-5.5c59.6-138.6,125-135.4,200.4-219.9c52.5-58.6,86.5-153,104.2-212.9C1070.9,16.4,1080,18.2,1079.4,24.6z
	 M237,655c-1.6,5.6-9.8,4.8-10.4-1c-9.2-101.3,40.7-229.4,40.7-229.4s54.5-144.3,145.5-207.2c83-57.4,127.2-56.3,209.7-186.3
	c3.5-5.4,11.8-1.2,9.4,4.8c-22.4,56.2-72.4,154-171.2,236.8c-93.6,78.4-112.3,133.9-140.1,182.6C270.9,547.9,247.1,619.2,237,655z
	 M311.9,849.4c-0.3,6.4-9.6,6.9-10.5,0.6C272.8,651.8,371,484.4,371,484.4c39.8-68.8,85.5-91.8,113.1-154c2.3-5.4,10.4-3.5,10.1,2.4
	c-2.4,41.2-14.6,117.2-67.4,183.9C334,631.1,314.9,773,311.9,849.4z M499.3,558.5c-3.4,21.9-14.9,52-45.4,89
	c-28.9,34.9-42,56.6-47.8,86.7c-1.2,6.4-10.8,5.3-10.5-1.3c1.4-30.9,11.8-60.7,30-85.8c38.2-53.2,56.4-59.9,65.1-93.6
	c1.7-7.1,3-14.3,3.8-21.6c0.4-3,4.8-3.1,5.2-0.1C500.9,540.7,500.8,549.7,499.3,558.5z M552.7,483.9c-3.1,5.5-11.5,1.8-9.7-4.2
	c71.7-233.2,127.3-211.9,229.3-282.6C845.9,146.2,868.2,63.3,875,15.4c0.9-6.2,9.8-6,10.5,0.2c3.2,29,2.9,72.6-14.5,122.9
	c-2.8,7-5.5,12.6-7.6,16.8c-1.7,3.2-0.4,7.1,2.7,8.8c1.1,0.6,2.3,0.8,3.5,0.7c55.6-2.8,102.6-49,125.8-76.7c3.7-4.3,10.8-0.5,9.1,5
	c-28.6,96.6-81,123.3-191.9,146.6C692.6,261.8,595.8,407.6,552.7,483.9z M657.1,1034.5c-2.4,5.5-10.6,3.3-10.1-2.6
	c15.6-168.2,58.2-243.4,128.4-314c0,0,144.6-136.5,179.9-245.6c4.5-13.8-4-19-15.6-11.5c-32.4,20.9-106.8,79.8-200.9,236
	c-16.8,29.2-31.4,59.7-43.7,91.1c-2.3,5.8-11,3.6-10.2-2.6c7.1-55.7,23.7-106,23.7-106s41.7-113,114.7-188.4
	c110.3-113.7,189.9-92.2,277.4-340.3c2-5.8,9.7-4.1,10.2,2c3.7,48.3-15.8,127.5-55.8,202.3c-19.6,36.6-28.7,65.4-38.1,99.3
	c-14.3,51.6-41.6,150.7-189.9,293.5C758.9,812.6,685.9,969,657.1,1034.5L657.1,1034.5z"/>
<path class="st0" d="M1343.4,713.7c-57.8,100.2-106.2,147.8-231.6,198.4c-87.8,37.6-149.4,120.4-179.1,167.9h88.3
	c60.3-79.7,164.9-125.1,164.9-125.1s171.5-67.7,254.1-284.1v94.1c-30.2,88.4-84.9,178.6-183.4,230.8c0,0-67.9,33.9-135.4,84.3h111.1
	c11.4-8.3,21-14.8,28.6-19.7c2.4-1.6,5.6-1.1,7.2,1.3c1.2,1.7,1.3,4,0.2,5.7l-7.2,12.7h61c11.6-22,19.9-35,19.9-35
	c11.6-17,24.4-33.2,38.2-48.4c2-2.2,5.3-2.3,7.5-0.3c1.6,1.5,2.1,3.9,1.3,5.9c-6.6,15.4-15.1,35.7-23.1,56.6
	c-2.7,7-5.2,14.1-7.6,21.2h52.4c8.7-21.2,18.4-41.9,29.3-62.1v-64.3c-2.7-0.5-4.5-3.2-3.9-5.9c0,0,0-0.1,0-0.1
	c1.1-5.6,2.3-11.3,3.9-17.1V407.2c-24,46.1-40.7,95.6-49.5,146.8C1381,609,1365.8,675,1343.4,713.7z"/>
<path class="st0" d="M303.4,0h-79.2c-6.5,20.7-14.1,39.6-22.6,54.4c-53,91.8-98.1,139.5-201.6,185.7v79.2
	c26.3-15.5,45.1-23.6,45.1-23.6S222.7,225.5,303.4,0z"/>
<path class="st0" d="M169.9,0H0v61.4C53.6,42.8,76.6,33.3,111.2,2.5c2.2-1.9,5.6-1.7,7.5,0.5c1.4,1.6,1.7,3.8,0.8,5.7
	C105,39.4,71.7,93.4,9,115.9l-9,3.3v68.6c10.5-5.9,22.1-12.5,34.5-19.7C94.7,133.4,142.6,79.9,169.9,0z"/>
<path class="st1" d="M1217,523.9c-2.7,1.2-5.8,0-7-2.6c-0.9-1.9-0.5-4.2,0.9-5.8c83.1-88.8,127.3-252.4,134.5-437.1
	c1-24.8,6.5-51.7,14.4-78.4h-43.9c-32.2,83.5-27.5,159.1-53.9,259.9c-51.1,195.9-168.2,283.8-249.8,346.1S853.4,763,853.4,763
	s-62.4,74.1-92.3,156.1c-2,5.6,5.4,9.8,9.1,5.1c27.1-34.1,80.4-98.3,126.1-136.5c0,0,144.8-120.2,258.6-163.1
	c90.8-34.3,150.2-73.9,171.7-88.7c2.4-1.7,5.7-1.1,7.4,1.4c0.7,1,1,2.2,0.9,3.3c-11.5,149.1-72.5,237.1-158.5,286.8
	c-68.1,39.3-108.7,59.3-108.7,59.3s-84.3,41-142.8,193.3h7.8c29.7-47.5,91.3-130.3,179.1-167.9c125.4-50.6,173.8-98.2,231.6-198.4
	C1365.8,675,1381,609,1390.5,554c8.8-51.2,25.5-100.7,49.5-146.8V245c-10,22.5-20.7,47.8-32.7,76.5
	C1354.8,447.7,1261.4,503.6,1217,523.9z"/>
<path class="st1" d="M1440,764.9v-94.1c-82.6,216.4-254.1,284.1-254.1,284.1s-104.6,45.4-164.9,125.1h100.2
	c67.5-50.4,135.4-84.3,135.4-84.3C1355.1,943.5,1409.8,853.3,1440,764.9z"/>
<path class="st1" d="M764.5,455.3c-2.4,5.6,5.1,10.2,8.9,5.5c26-31.6,72.3-80.8,131.6-113.1c85.1-46.3,155-135.2,174.4-323.1
	c0.6-6.4-8.5-8.2-10.3-2.1c-17.7,59.9-51.7,154.3-104.2,212.9C889.5,319.9,824.1,316.7,764.5,455.3z"/>
<path class="st1" d="M1163.9,61.7c5.7,114.6,10.3,173.9-10.3,231.9c-2.1,6.1,6.5,10,9.6,4.3c33.8-60.8,72.4-149,53.1-245.4
	c-3.3-16.7-4-34.4-2.7-52.5h-46.3C1164.1,20.4,1162.9,41.1,1163.9,61.7z"/>
<path class="st1" d="M1393.7,228.1c13.4-24.6,29.7-56.1,46.3-91.5V0h-0.6c-17.4,75.1-32.7,153.5-55.4,224
	C1382.1,230.1,1390.6,233.8,1393.7,228.1z"/>
<path class="st1" d="M1440,1080v-62.1c-10.9,20.2-20.6,40.9-29.3,62.1H1440z"/>
<path class="st1" d="M1389,1002.2c1.1-2.7-0.2-5.8-2.9-6.9c-2-0.8-4.4-0.3-5.9,1.3c-13.8,15.2-26.6,31.4-38.2,48.4
	c0,0-8.3,13-19.9,35h36.2c2.4-7.1,4.9-14.2,7.6-21.2C1373.9,1037.9,1382.4,1017.6,1389,1002.2z"/>
<path class="st1" d="M1104.2,465.2c-8.3,7.4-17.1,14.1-26.4,20.2c-1.2,0.8-2.8,0.4-3.6-0.8c-0.4-0.6-0.5-1.4-0.3-2.1
	c5.4-21,7.3-46.2,8.1-62.5c0.2-1.4-0.7-2.8-2.2-3c-1.4-0.2-2.6,0.6-2.9,2c-20.8,57.7-46.3,108.7-55.9,127.4c-0.7,1.3-0.2,2.8,1,3.5
	c0.8,0.5,1.8,0.4,2.6,0c38-21.4,68-59,83.5-81.3c0.8-1.2,0.6-2.8-0.6-3.6C1106.5,464.3,1105.1,464.4,1104.2,465.2z"/>
<path class="st1" d="M752.1,994.5c-27.7,30.5-48.7,58.7-64.9,85.5h35.6c12.8-30.9,26.8-58.8,37.8-79.5
	C763.6,995,756.2,989.9,752.1,994.5z"/>
<path class="st1" d="M627.5,921.9c-24.5,24.3-75.1,81-103.3,158.1h40.9c17.4-65.4,50.1-126.7,66.5-154.9
	C633.2,922.5,629.7,919.8,627.5,921.9z"/>
<path class="st1" d="M1005.9,851c57.2-40.6,78.2-51.8,144.9-75.8c62.7-22.6,96.1-76.6,110.5-107.2c2.5-5.2-4-10-8.3-6.2
	c-41.8,37.2-66.6,43.3-149.1,71.9c-87.2,30.1-154.9,84.4-154.9,84.4s-87.8,66.8-130.8,186.8c-8.5,23.9-16,49.1-22.9,75.1h58.1
	c0.1-0.7,0.3-1.4,0.5-2.1C887.7,933.7,1005.9,851,1005.9,851z"/>
<path class="st1" d="M1260.9,1060.3c-7.6,4.9-17.2,11.4-28.6,19.7h28.8l7.2-12.7c1.5-2.4,0.8-5.6-1.7-7.2
	C1264.9,1059,1262.6,1059.1,1260.9,1060.3z"/>
<path class="st1" d="M827.1,747.7c148.3-142.8,175.6-241.9,189.9-293.5c9.4-33.9,18.5-62.7,38.1-99.3c40-74.8,59.5-154,55.8-202.3
	c-0.5-6.1-8.2-7.8-10.2-2c-87.5,248.1-167.1,226.6-277.4,340.3c-73,75.4-114.7,188.4-114.7,188.4s-16.6,50.3-23.7,106
	c-0.8,6.2,7.9,8.4,10.2,2.6c12.3-31.4,26.9-61.9,43.7-91.1c94.1-156.2,168.5-215.1,200.9-236c11.6-7.5,20.1-2.3,15.6,11.5
	C920,581.4,775.4,717.9,775.4,717.9c-70.2,70.6-112.8,145.8-128.4,314c-0.5,5.9,7.7,8.1,10.1,2.6C685.9,969,758.9,812.6,827.1,747.7
	z"/>
<path class="st1" d="M441.8,1044.2c86.8-53.1,118.4-68.3,180.1-204.1c40.3-88.8,38.9-155.9,33.1-191.7c-1-6.5-2.5-12.9-4.4-19.2
	c-0.6-1.4-2.1-2.1-3.5-1.5c-1,0.4-1.6,1.3-1.7,2.3c0,4.1-0.4,8.2-1,12.3c-16.3,80.9-61.7,169.7-90.6,208.5
	c-12,16.1-34.8,6.9-35.3-9.7c-1.4-51.3,2.7-64.5,14-116.3c10.1-37.4,16.2-69.6,48.7-119c12.9-20.6,26.8-33.3,33.2-41.4
	c1-1.1,0.9-2.7-0.2-3.7c-0.8-0.7-1.8-0.8-2.8-0.4c-27.2,10.2-51,33.5-51,33.5c-39.5,41.6-52.5,72-65.4,104
	c-18.1,44.9-25.1,90.9-32.2,147.8c-9.7,78.6-27.2,111.8-61.3,142c-21.3,19-41.1,54.1-57.9,92.4h55
	C412.5,1065.7,427,1053.3,441.8,1044.2z"/>
<path class="st1" d="M460.7,272.7c98.8-82.8,148.8-180.6,171.2-236.8c2.4-6-5.9-10.2-9.4-4.8C540,161.1,495.8,160,412.8,217.4
	c-91,62.9-145.5,207.2-145.5,207.2S217.4,552.7,226.6,654c0.6,5.8,8.8,6.6,10.4,1c10.1-35.8,33.9-107.1,83.6-199.7
	C348.4,406.6,367.1,351.1,460.7,272.7z"/>
<path class="st1" d="M548.4,310.9c-0.7,2.8,1.1,5.7,3.9,6.4c2.1,0.5,4.2-0.3,5.5-2c27.8-39.2,88.1-121,142.3-172
	C746.6,99.6,784.4,51.4,811.8,0h-71.6C688.4,84.9,583.6,180.6,548.4,310.9z"/>
<path class="st1" d="M375.7,129.1c-50,62.2-73.1,115.4-81.4,159.2c-1.2,5.9,7,8.8,9.8,3.5c26.1-48.7,88.2-151.2,171.2-197.4
	c48-26.7,93-58.4,134.5-94.4h-91.7C468.9,39.7,418.4,75.9,375.7,129.1z"/>
<path class="st1" d="M812.6,239.7c110.9-23.3,163.3-50,191.9-146.6c1.7-5.5-5.4-9.3-9.1-5c-23.2,27.7-70.2,73.9-125.8,76.7
	c-3.6,0.2-6.7-2.5-6.9-6c-0.1-1.2,0.2-2.4,0.7-3.5c2.1-4.2,4.8-9.8,7.6-16.8c17.4-50.3,17.7-93.9,14.5-122.9
	c-0.7-6.2-9.6-6.4-10.5-0.2c-6.8,47.9-29.1,130.8-102.7,181.7c-102,70.7-157.6,49.4-229.3,282.6c-1.8,6,6.6,9.7,9.7,4.2
	C595.8,407.6,692.6,261.8,812.6,239.7z"/>
<path class="st1" d="M494.2,332.8c0.3-5.9-7.8-7.8-10.1-2.4c-27.6,62.2-73.3,85.2-113.1,154c0,0-98.2,167.4-69.6,365.6
	c0.9,6.3,10.2,5.8,10.5-0.6c3-76.4,22.1-218.3,114.9-332.7C479.6,450,491.8,374,494.2,332.8z"/>
<path class="st1" d="M195.6,856.6c-32.9-158.8-22.6-323.1,28.5-457c8-20.9,16.5-41.3,23-56.6c1.3-2.6,0.3-5.7-2.3-7
	c-2.2-1.1-4.9-0.5-6.4,1.4c-13.8,15.2-26.6,31.4-38.3,48.4c0,0-77.1,120.5-89,248.8C100.1,754.4,77.5,849.1,0,981.1v98.9h13.7
	c48.1-53.2,85.9-111.5,107.6-170.6c1.1-2.7,4.1-4.1,6.8-3c1.8,0.7,3.1,2.3,3.4,4.2c3.9,31.8,6.6,96.6-20.5,169.4h69
	C205.3,1009.2,211.6,933.8,195.6,856.6z"/>
<path class="st1" d="M970.5,59.7c9.9-17.3,22.7-38.4,37.5-59.7h-29.2c-7.1,20.3-13.1,39.5-17.9,55.6
	C959.1,61.6,967.4,65.1,970.5,59.7z"/>
<path class="st1" d="M325.4,0h-22C222.7,225.5,45.1,295.7,45.1,295.7S26.3,303.8,0,319.3v87.2c37-25.9,75.6-49.3,115.7-70.1
	C254.8,262.8,306.5,113.3,325.4,0z"/>
<path class="st1" d="M119.5,8.7c1.2-2.7,0-5.8-2.6-7c-1.9-0.9-4.1-0.5-5.7,0.8C76.6,33.3,53.6,42.8,0,61.4v57.8l9-3.3
	C71.7,93.4,105,39.4,119.5,8.7z"/>
<path class="st1" d="M28.8,700c31.6-134.2,26.7-168.1,97.7-291.9c1.5-2.5,0.6-5.8-1.9-7.3c-1.7-1-3.9-1-5.6,0.2
	c-23.4,15.3-67.4,46.5-119,94.9v80.3l2-2c2.1-2,5.5-1.9,7.5,0.2c1.2,1.3,1.7,3,1.3,4.8c-2.4,10.4-6,25.4-10.8,44V794
	C11.5,763.3,21.1,731.9,28.8,700z"/>
<path class="st1" d="M368.7,885.8c-17.3,15.7-35.8,35.1-57.5,62c-7.7,9.5-17.4,10.7-22.9,0.9c-12.7-23-21.4-49.7-26.5-70.5
	c-1.3-5.4-9.1-5.3-10.3,0.2c-7.9,38.1-19.7,118.7-1.4,201.6h38.5c18.4-47.1,48.5-117.6,88.2-187.7
	C379.8,887.1,373.1,881.7,368.7,885.8z"/>
<path class="st1" d="M201.6,54.4c8.5-14.8,16.1-33.7,22.6-54.4h-54.3C142.6,79.9,94.7,133.4,34.5,168.1c-12.4,7.2-24,13.8-34.5,19.7
	v52.3C103.5,193.9,148.6,146.2,201.6,54.4z"/>
<path class="st1" d="M494.5,531.9c-0.8,7.3-2.1,14.5-3.8,21.6c-8.7,33.7-26.9,40.4-65.1,93.6c-18.2,25.1-28.6,54.9-30,85.8
	c-0.3,6.6,9.3,7.7,10.5,1.3c5.8-30.1,18.9-51.8,47.8-86.7c30.5-37,42-67.1,45.4-89c1.5-8.8,1.6-17.8,0.4-26.7
	C499.3,528.8,494.9,528.9,494.5,531.9z"/>
</svg>
