<?xml version="1.0" encoding="utf-8"?>
<!-- Generator: Adobe Illustrator 23.0.4, SVG Export Plug-In . SVG Version: 6.00 Build 0)  -->
<svg version="1.1" id="Ebene_1" xmlns="http://www.w3.org/2000/svg" xmlns:xlink="http://www.w3.org/1999/xlink" x="0px" y="0px"
	 viewBox="0 0 1440 1080" style="enable-background:new 0 0 1440 1080;" xml:space="preserve">
<style type="text/css">
	.st0{fill:#001C6E;}
	.st1{fill:#69D2AA;}
	.st2{clip-path:url(#SVGID_2_);fill:#001C6E;}
	.st3{clip-path:url(#SVGID_4_);fill:#001C6E;}
	.st4{clip-path:url(#SVGID_6_);fill:#001C6E;}
	.st5{clip-path:url(#SVGID_8_);fill:#001C6E;}
</style>
<g>
	<path class="st0" d="M282.69,62.99c38.96,36.3,58.78,66.24,76.73,133.84c17.99,67.6-41.37,54.29-93.03,62.68
		c-51.65,8.35-133.91,32.1-147.89,61.46c-1.15,2.41-2.2,4.83-3.15,7.22c-4.38,11.09-9.56,21.85-16.06,31.86
		c-4.91,7.57-9.93,14.92-15.2,20.96c-18.85,21.5-24.2,18.82-43.05,37.63c-13.43,13.45,32.28,21.52,43.05-2.68
		c4.91-11.1,10.43-21.64,19.61-32.66c6.62-7.93,14.81-14.32,23.56-19.81c1.07-0.67,2.2-1.45,3.38-2.35
		c25.51-19.19,70.14-25.61,128.84-35.93c58.66-10.29,96.28-21.2,149.85-41.69c53.53-20.49,34.31-65.13,16.45-81.67
		c-17.89-16.56-21.73-30.6-28.19-68.86c-6.42-38.27-39.67-91.81-57.6-114.75C335.74,12.76,329.02,6.59,321.11,0h-90.46
		C244.17,20.92,262.19,43.9,282.69,62.99z"/>
	<path class="st0" d="M106.84,8.73c24.3,34.87,97.06,77.69,140.18,107.14c43.1,29.47,56.59,45.58,53.89,34.83
		c-2.74-10.77-64.72-61.69-94.38-80.42C188.43,58.82,158.24,33.38,136.22,0h-35.47C102.91,3.09,104.95,6.02,106.84,8.73z"/>
	<path class="st0" d="M61.26,238.6l7.84-21.51c5.53-15.18,20.65-24.67,36.72-23.06l93.92,9.43c37.67,2.68,86.08,10.75,75.32-2.68
		c-10.77-13.46-45.73-13.46-91.45-34.98c-45.74-21.52-86.08-29.6-107.58-53.8c-19.17-21.56-28.88-26.98-42.12,5
		c-3.66,8.84-14.76,37.83-18.39,47.95c-6.97,19.41-9.79,39.84-14.49,61.88c-0.34,1.6-0.68,3.21-1.02,4.81v107.94
		c0.53-0.59,1.06-1.18,1.59-1.78C48.76,284.26,48.31,271.43,61.26,238.6z"/>
	<path class="st0" d="M38.6,972.58c-9.92-6.61-23.31-15.32-38.6-25.1v35.21c37.83,23.61,69.37,49.75,87,92.1
		c0.73,1.76,1.47,3.49,2.2,5.21h43.91C100.49,1039.45,73.81,996.05,38.6,972.58z"/>
	<path class="st0" d="M497,145.46c24.75,49.85,44.45,74.95,31.99,115.41c-12.48,40.49-147.17,66.54-190.04,89.22
		c-33.61,17.74-80.38,23.71-111.08,34.92c-61.44,14.35-55.91,55.1-63.09,76.68c-8.08,24.2-16.13,48.41-32.28,64.54
		c-16.13,16.14-61.85-2.68-102.2-32.27c-9.72-7.13-19.91-12.36-30.3-16.2v68.36c7.41,9.6,15.31,18.85,24.9,25.84
		c29.6,21.52,72.63,40.35,142.55,43.04c60.82,2.35,78.93-42.13,93.21-74.99h0c2.15-4.93,4.22-9.6,6.31-13.78
		c16.15-32.27,37.63-83.39,75.32-107.59c12.69-8.16,27.19-17.2,40.84-25.65c2.3-1.24,4.62-2.51,7.09-3.89
		c56.08-31.26,118.37-41.61,182.31-64.11c63.94-22.53,56.25-52.33,46.01-80.79c-10.22-28.5-31.12-49.71-27.22-103.39
		c3.86-53.72-14.78-89.01-54.84-137.25c-0.98-1.18-1.96-2.36-2.94-3.54H418.59C466.58,34.96,472.73,96.58,497,145.46z"/>
	<path class="st0" d="M899.29,0c1.97,40.37,52.81,73.09,55.97,94.31c3.21,21.44,8.64,24,10.71-2.94
		c2.05-26.95,6.93-48.61-12.25-64.29c-5.91-4.83-7.09-14.62-6.56-27.09H899.29z"/>
	<path class="st0" d="M822.21,40.89c1.14,2.71,2.43,5.3,3.8,7.81c20.48,37.29,63.15,51.01,78.69,68.32
		c16.56,18.44,33.15,36.88,32.9,26.13C937.35,133.07,886.3,72.12,861,14c-1.71-3.86-3.27-7.72-4.71-11.55
		c-0.31-0.83-0.62-1.64-0.93-2.45h-53.84C810.5,17.08,818.23,31.58,822.21,40.89z"/>
	<path class="st0" d="M1078.42,755.24c27.83-50.95,24.81-154.82,39.3-215.24h0c0.61-2.62,1.22-5.27,1.92-7.69
		c16.79-58.9,39.82-109.91,53.38-134.43c13.54-24.52,12.97-32.92,3.99-28.43c-13.02,6.51-25.55,55.18-56.93,94.25
		c-24.43,30.37-34.38,50.69-40.06,76.3h0c-1.61,7.32-2.91,15.05-4.03,23.59c-5.15,38.46-41.24,136.15-100.57,187.98
		c-59.33,51.83-121.07,87.56-166.22,141.08c-5.36,6.35-10.7,13.16-16.05,20.19c-19.05,19.42-38.49,43.98-51.2,59.63
		c-5.43,6.69-13.01,13.08-21.94,19.23c-30.77,21.12-78.78,39.09-120.4,53.81c-53.76,18.99-85.98,37.91-112.92,21.85
		c-26.94-16.05-75.55-85.83-99.89-120.74c-24.28-34.89-97.03-77.71-140.18-107.16c-43.1-29.47-56.59-45.57-53.89-34.81
		c2.72,10.75,64.76,61.67,94.38,80.41c29.66,18.74,91.7,75.04,97.26,142.26c1.56,18.93,7.31,36.67,15.17,52.67H759.7
		c2.08-36.4,15.82-61.46,65.9-88.85c57.79-31.63,89.82-42.47,111.17-79.27c21.33-36.82,32.81-63.31,47.09-57.59
		c14.25,5.72-38.94,61.44-34,99.66c4.92,38.22-36.93,61.39-64.88,74.15c-20.45,9.34-32.74,32.87-46.6,51.9h48
		c7.96-3.08,16.4-6.15,26.89-10.16c21.6-8.25,31.33,5.31,77.63,0.19c46.3-5.11,58.11-17.49,74.28-15.84
		c8.48,0.85,11.68,12.92,6.45,25.81h59.43c11.44-26.91,20.16-57.25,19.49-86.33c-0.95-40.33,17.82-101.3,18.88-141.67
		c1.1-40.39,5.43-113.13,4.84-139.35c-0.61-26.22-25.48-53.88-26.16-84.15c-0.72-30.25,2.66-58.58-5.4-58.39
		c-8.07,0.18-18.54,71.06-7.79,99.05c10.71,28.01-2.07,84.79-16.34,165.84c-14.25,81.05-27.36,125.74-55.05,148.58
		c-27.72,22.85-62.2,15.58-45.25-37.28C1035.2,893.44,1049.39,808.38,1078.42,755.24z"/>
	<path class="st0" d="M1332.39,830.04c14.21-83.05,51.25-138.4,57.64-211.2c2.28-26.01,1.41-53.98-1.29-78.85h0
		c-4.79-44.72-15.52-79.29-24.45-73.91c-10.24,6.16,3.06,42.28,7.14,73.92h0c1.5,11.42,1.78,22.26-0.66,30.86
		c-9.35,32.5-21.45,32.79-16.91,54.87c4.56,22.1-12.37,74.95-22.42,77.19c-10.03,2.27-1.37-58.47-11.97-80.43
		c-6.42-13.29-6.57-46.07-1.1-82.49h0c3.57-23.66,9.5-48.81,17.71-71.24c20.9-56.99,40.03-101.83,35.75-111.82
		c-4.26-9.97-47.74,29.36-52.36,92.03c-2.66,36.39-16.37,64.86-26.44,91.02h0c-7.26,18.87-12.62,36.56-10.49,55.11
		c5.03,44.28,10.87,120.83,0.04,175.56c-10.85,54.74,7.16,135.02,5.66,244.02c-0.31,22.17-0.62,43.99-0.81,65.32h44.67
		C1321.55,974.68,1321.08,896.11,1332.39,830.04z"/>
	<path class="st0" d="M225.49,971.32c-45.78-24.07-105.15-87.1-126.75-111.25C80.3,839.45,35.39,809.12,0,786.52v87.13
		c16.59,10.5,32.5,20.07,46.43,28.27c36.38,21.39,71.45,60.3,99.79,96.53c16.89,21.58,50.96,49.31,82.62,81.54h97.65
		c-0.38-0.46-0.76-0.93-1.15-1.39C276.76,1020.93,271.31,995.39,225.49,971.32z"/>
	<path class="st0" d="M1440,847.54c-0.15-2.06-0.28-4.03-0.41-5.88c-2.59-37.76-7.42-109.16,0.41-162.13V435.63
		c-3.78-8.03-7.92-15.93-12.4-23.48c-18.92-31.84-13.18-46.11-25.29-45.82c-12.1,0.27-13.54,24.52,5.11,46.29
		c18.66,21.78,32.96,29.5,21.51,58.03c-9.84,24.58-6.33,42.91,0.49,69.37h0c1.1,4.22,2.26,8.6,3.45,13.28
		c8.87,34.09-3.72,98.96-29.12,135.87c-25.36,36.91-40.67,73.57-39.53,121.99c1.12,48.39-20.3,119.19-4.79,141.37
		c8.41,12.02,17.53,2.5,11.54-26.46c-3.68-17.77,11.09-42.68,14.58-64.95c3.52-22.27-2.2-94.79,9.38-117.25
		c11.57-22.48,30.36,3.32,19.24,45.96c-11.13,42.63,12.42,100.59-0.72,143.27c-12.09,39.26-17.49,71.51-13.5,146.93H1440V847.54z"/>
	<path class="st0" d="M1205.53,332.99c7.68,5.99,33.93-27.46,75.45-64.71c41.53-37.29,49.01-61.69,85.24-65.56
		c21.71-2.33,50.68,26.36,73.78,55.07v-57.5c-14.08-29.81-27.65-59.36-49.12-65.74c-31.52-9.37-43.22,7.07-65.79,35.85
		c-22.53,28.76-55.36,47.69-62.01,66.03c-6.63,18.29-14.29,36.65-36.06,54.28C1205.26,308.36,1198,327.12,1205.53,332.99z"/>
	<path class="st0" d="M1232.39,955.45c-7.31-54.3,2.66-145.35,19.47-204.26c16.77-58.89,9.67-105.13,2.3-161.46
		c-2.51-19.15-5.83-34.76-7.9-49.73h0c-3.95-29.01-3.05-55.41,18.54-99.84c32.75-67.34,81.38-145.17,99.39-151.62
		c18.01-6.49,24.68,19.58,66.26,73.1c3.42,4.39,6.59,8.38,9.55,12.04v-37.1c-10.61-13.5-18.1-25.58-18.97-33.23
		c-2.53-22.13-17.65-64.14-59.69-51.09c-42.1,13.08-63.26,57.98-100.61,99.21c-37.4,41.23-44.98,61.58-57.84,116.36
		c-5.95,25.33-9.29,48.46-11.07,72.18h0c-2.09,27.58-2.09,55.94-1.31,89.53c1.46,62.53,30.07,78,22.09,169.01
		c-7.98,90.97-27.43,121.7-18.09,175.96c4.53,26.43-5.05,63.26-16.05,105.5h48.56C1233.93,1032.07,1238.03,997.22,1232.39,955.45z"
		/>
	<path class="st0" d="M361.13,655.34c21.51-45.72,51.08-91.45,86.08-110.27c3.07-1.67,6.56-3.35,10.18-5.06h0.02
		c37.48-17.58,104.69-31.4,143.12-56.8c14.43-9.54,38.91-34.36,51.63-46.08c26.69-24.58,40.43-39.68,67.84-54.26
		c6.82-3.63,14.51-7.18,23.59-10.75c45.48-17.81,58.55-53.91,69.45-75.89c10.89-21.99-19.17-47.99-25.65-75.25
		c-6.5-27.25-3.32-51.6-19.11-69.03c-15.77-17.44-18.73-56.28-26.48-107.14c-3.2-21-6.51-33.42-11.34-44.8h-95.66
		c14.03,49.93,24.93,114.17,42.03,168.45c27.91,88.58,22.64,105.96,11.17,129.87c-11.49,23.92-81.02,72.39-134.38,81.46
		c-47.95,8.19-63.59,21.66-80,51.64c-25.39,46.39-87.54,54.07-120.57,100.19c-1.87,2.61-3.89,5.38-5.69,8.38h-0.01
		c-17.34,29.01-25.15,78.28-37.31,109.97c-13.49,34.98-53.84,43.04-91.47,40.36c-37.65-2.7-104.92-2.7-147.93-13.46
		c-20.6-5.15-46.11-11.54-70.65-22.09v40.89c35.6,18.17,76.38,18.25,154,24.23c104.92,8.06,118.35,56.48,147.97,69.94
		C331.53,803.28,339.61,701.06,361.13,655.34z"/>
	<path class="st0" d="M1280.18,147.21c48.77-71.78,82.49-96.76,96.62-97.07c13.99-0.35,33.72-8.71,63.2,61.09V14.68
		c-3.01-5.18-5.74-10.07-8.18-14.68h-85.52c-33.53,41.95-55.1,68.64-81.61,89.04c-29.69,22.88-49.41,43.54-58.57,84.09
		c-9.14,40.57-50.4,87.94-74.14,108.69c-23.75,20.72-35.03,55.29-50.46,85.92c-15.44,30.63-38.56,77.57-60.43,92.18
		c-17.65,11.84-30.94,42.01-47.55,80.07h0c-3.91,9.03-8.05,18.5-12.46,28.29c-23.02,50.99-74.39,98.6-118.06,129.85
		c-42.42,30.41-73.96,39.69-123.01,76.46c-1.44,1.08-2.83,2.08-4.27,3.2c-38.11,29.23-62.07,48.2-72.53,68.35
		c-1.1,2.11-3.31,3.55-5.68,3.45c-10.04-0.44-14.37-25.06-14.42-45.56c-0.08-20.9,8.7-52.85,30.42-77.91
		c7.32-8.44,16.33-15.26,26.33-20.25c12.85-6.41,26.54-12.64,40.15-18.46c17.36-7.42,34.58-14.21,49.66-19.86
		c46.01-17.19,83.66-46.33,128.99-93.79c11.28-11.84,21.99-23.04,31.72-33.77h0.01c29.25-32.3,49.81-60.43,52.17-89.28
		c3.15-38.38,24.58-71.2,71.49-136.85c46.9-65.67,79.27-149.15,108.91-176.06c29.63-26.91,63.03-66.01,84.14-112.93
		c3.85-8.57,7.99-16.87,12.37-24.89h-74.23c-2.24,6.03-3.9,11.56-4.91,16.36c-7.29,34.46-15.08,46.74-32.79,65.33
		c-17.72,18.55-25.19,44.98-46.26,93.87c-21.07,48.94-45.9,108.04-79.45,141.08c-33.53,33.05-52.81,71.86-83.85,125.04
		c-23.5,40.25-44.85,74.68-76.37,98.31h-0.01c-10.11,7.6-21.28,14.08-33.89,19.28c-41.66,17.15-71.77,32.81-107.68,53.45
		c-8.91,5.12-18.05,10.45-27.92,16.29c-49.73,29.4-110.07,38.89-135.94,53.61c-21.05,11.97-21.34,32.58-19.51,45.27
		c1.13,7.8,1.75,15.67,2.09,23.55l1.52,34.53c0.06,1.46,0.23,2.92,0.39,4.37c2.94,25.29-12.52,47.62-22.2,94.72
		c-9.95,48.43-11.87,82.74-7.77,104.91c4.12,22.18,112.47-16.45,139.06-46.81c6.44-7.35,10.89-14.44,14.93-18.9
		c14.96-16.5,29.66-29.02,55.36-49.18c17.19-13.51,39.99-29.66,73.48-50.67c83.53-52.4,138.51-118.23,165.65-165.28
		c17.86-30.94,52.07-71.04,80.31-119.12h0.01c14.69-25.02,27.79-52.13,36.09-81.32c24.24-85.32,31.38-125.84,92.67-179.76
		C1229.54,225.05,1231.4,218.97,1280.18,147.21z"/>
	<path class="st0" d="M460.71,832.15c17.78-16.56,22.74-63.08,31.9-103.66c9.14-40.57,16.22-83.1,92.21-113.13
		c70.97-28.05,96.39-47.98,135.18-69.41c2.74-1.5,5.51-3.03,8.38-4.54c0.89-0.47,1.83-0.93,2.72-1.41h0.02
		c43.52-22.63,100.02-42.89,139.82-116.94c40.6-75.62,88.93-167.53,138.11-221.13c49.2-53.6,63.05-66.04,89.27-153.41
		c4.85-16.18,10.53-32.51,16.77-48.53h-70.2c-4.49,21.05-8.04,40.13-12.92,58.15c-14.88,54.81-63.01,154.8-107.85,222.46
		c-44.83,67.6-60.03,108.32-121.47,156.15c-43.14,33.6-52.96,46.5-82.64,62.36c-12.63,6.72-28.76,13.94-52.58,23.54
		c-16.31,6.54-31.25,12.13-45.17,17.34h-0.03c-54.37,20.36-92.65,34.9-130.19,77.53c-47.17,53.56-56.21,98.17-73.69,128.86
		c-17.42,30.67-0.68,56.51,3.67,70.53C428.64,838.18,442.93,848.7,460.71,832.15z"/>
</g>
</svg>
